/* XPM */
static char *close_inactive[] = {
/* columns rows colors chars-per-pixel */
"28 32 18 1 ",
"  c #23262E",
". c #262931",
"X c #272931",
"o c #262A31",
"O c #272932",
"+ c #272B33",
"@ c #282A32",
"# c #282B33",
"$ c #2A2D35",
"% c #2B2D35",
"& c #2B2E36",
"* c #2C2F37",
"= c #2D2F37",
"- c #32343C",
"; c #32353D",
": c #33353D",
"> c #33363D",
", c #373941",
/* pixels */
"----------------------------",
"                            ",
"                            ",
"                            ",
"                            ",
"                            ",
"                            ",
"                            ",
"            O&=&X           ",
"          #>,,,,,:@         ",
"         %,,,,,,,,,$        ",
"        #,,,,,,,,,,,@       ",
"        >,,,,,,,,,,,:       ",
"       O,,,,,,,,,,,,,o      ",
"       &,,,,,,,,,,,,,&      ",
"       *,,,,,,,,,,,,,*      ",
"       &,,,,,,,,,,,,,%      ",
"       X,,,,,,,,,,,,,.      ",
"        :,,,,,,,,,,,;       ",
"        @,,,,,,,,,,,+       ",
"         $,,,,,,,,,$        ",
"          @:,,,,,;+         ",
"            .%=%o           ",
"                            ",
"                            ",
"                            ",
"                            ",
"                            ",
"                            ",
"                            ",
"                            ",
"                            "
};
