/* XPM */
static char *close_prelight[] = {
/* columns rows colors chars-per-pixel */
"28 32 45 1 ",
"  c #1E2027",
". c #1E2128",
"X c #1F2229",
"o c #20232A",
"O c #20232B",
"+ c #21232B",
"@ c #21242C",
"# c #22252C",
"$ c #22252D",
"% c #23262D",
"& c #23262E",
"* c #32343C",
"= c #431B35",
"- c #451A35",
"; c #441B35",
": c #461A36",
"> c #471A36",
", c #501939",
"< c #52193A",
"1 c #54183B",
"2 c #701445",
"3 c #721445",
"4 c #731446",
"5 c #761348",
"6 c #771348",
"7 c #781348",
"8 c #9F1D2B",
"9 c #A01D2B",
"0 c #A01D2C",
"q c #87114E",
"w c #89114E",
"e c #C11347",
"r c #D70C59",
"t c #D90B5B",
"y c #D80C5A",
"u c #CF0768",
"i c #D00769",
"p c #D10769",
"a c #D2066A",
"s c #EE056C",
"d c #EF056C",
"f c #FB0079",
"g c #FB0179",
"h c #FD0079",
"j c #FF007A",
/* pixels */
"****************************",
"&&&&&&&&&&&&&&&&&&&&&&&&&&&&",
"&&&&&&&&&&&&&&&&&&&&&&&&&&&&",
"&&&&&&&&&&&&&&&&&&&&&&&&&&&&",
"&&&&&&&&&%$$####$$&&&&&&&&&&",
"&&&&&&&%$@OoXXXXo+@$%&&&&&&&",
"&&&&&&$@oX..    ..Xo@$&&&&&&",
"&&&&&$+X.          .X+$&&&&&",
"&&&&$+X.    >7q7:   .X+$&&&&",
"&&&$+X    1ajjjjjp<   X+$&&&",
"&&%@X.   4fjjjjjjjg3  .X@%&&",
"&&$o.   1fhsjjjjjshg<  .o$&&",
"&%@X    ajs0yjjjy0sji   X@&&",
"&$O.   >jjjt0rjt0rjjj;  .+$&",
"&$o.   7jjjjy0e0yjjjj6  .o$&",
"&#X    wjjjjje8ejjjjjw   X#&",
"&#X    7jjjjy0e0yjjjj5   X#&",
"&#X    :jjjt9rjt9rjjj=   X#&",
"&#X     pjs0yjjjy0dju    X#&",
"&$o.    <ghsjjjjjshg,   .o$&",
"&$+.     3gjjjjjjjg2    .+$&",
"&&@X      <ijjjjju,     X@&&",
"&&$o.       -5q5;      .o$&&",
"&&%@X.                .X@%&&",
"&&&$+X                X+$&&&",
"&&&&$+X.            .X+$&&&&",
"&&&&&$+X.          .X+$&&&&&",
"&&&&&&$@oX..    ..Xo@$&&&&&&",
"&&&&&&&%$@+oXXXXo+@$%&&&&&&&",
"&&&&&&&&&&$$####$$&&&&&&&&&&",
"&&&&&&&&&&&&&&&&&&&&&&&&&&&&",
"&&&&&&&&&&&&&&&&&&&&&&&&&&&&"
};
