/* XPM */
static char *hide_prelight[] = {
/* columns rows colors chars-per-pixel */
"28 32 30 1 ",
"  c #23262E",
". c #32343C",
"X c #454338",
"o c #464439",
"O c #474439",
"+ c #484539",
"@ c #49453A",
"# c #514E3D",
"$ c #534E3C",
"% c #55503D",
"& c #6F6645",
"* c #716746",
"= c #716846",
"- c #746B47",
"; c #756B48",
": c #766C48",
"> c #975914",
", c #84774C",
"< c #85794C",
"1 c #C69942",
"2 c #C69843",
"3 c #C7B061",
"4 c #C7B161",
"5 c #C8B261",
"6 c #C9B261",
"7 c #E7C562",
"8 c #EFD26D",
"9 c #F1D36C",
"0 c #F0D36D",
"q c #F3D56E",
/* pixels */
"............................",
"                            ",
"                            ",
"                            ",
"                            ",
"                            ",
"                            ",
"                            ",
"            @:,:+           ",
"          %6qqqqq5$         ",
"         =0qqqqqqq8*        ",
"        %0qqqqqqqqq8$       ",
"        6qqqqqqqqqqq4       ",
"       @qqqqqqqqqqqqqo      ",
"       :q97777777779q;      ",
"       <q1>>>>>>>>>2q<      ",
"       :q97777777779q-      ",
"       +qqqqqqqqqqqqqX      ",
"        5qqqqqqqqqqq3       ",
"        $8qqqqqqqqq8#       ",
"         *8qqqqqqq8&        ",
"          $4qqqqq3#         ",
"            O-,-o           ",
"                            ",
"                            ",
"                            ",
"                            ",
"                            ",
"                            ",
"                            ",
"                            ",
"                            "
};
