/* XPM */
static char *maximize_active[] = {
/* columns rows colors chars-per-pixel */
"28 32 27 1 ",
"  c #23262E",
". c #32343C",
"X c #334A2F",
"o c #334B30",
"O c #344B30",
"+ c #344C30",
"@ c #354D30",
"# c #395731",
"$ c #3A5830",
"% c #3B5A31",
"& c #477732",
"* c #487932",
"= c #497A32",
"- c #497B32",
"; c #497C33",
": c #4A7D33",
"> c #518D33",
", c #518B34",
"< c #74DB37",
"1 c #75DD36",
"2 c #74DC37",
"3 c #75DC37",
"4 c #74DD37",
"5 c #76DE38",
"6 c #83FD39",
"7 c #83FE39",
"8 c #84FF39",
/* pixels */
"............................",
"                            ",
"                            ",
"                            ",
"                            ",
"                            ",
"                            ",
"                            ",
"            @:,:+           ",
"          %5888881$         ",
"         =788888886*        ",
"        %78888888886$       ",
"        5888888888883       ",
"       @8888888888888o      ",
"       :8888888888888;      ",
"       >8888888888888>      ",
"       :8888888888888-      ",
"       +8888888888888X      ",
"        4888888888882       ",
"        $68888888886#       ",
"         *688888886&        ",
"          $388888<#         ",
"            O-,-o           ",
"                            ",
"                            ",
"                            ",
"                            ",
"                            ",
"                            ",
"                            ",
"                            ",
"                            "
};
