/* XPM */
static char *maximize_pressed[] = {
/* columns rows colors chars-per-pixel */
"28 32 42 1 ",
"  c #23262E",
". c #32343C",
"X c #0B7407",
"o c #334A2F",
"O c #334B30",
"+ c #344B30",
"@ c #344C30",
"# c #354D30",
"$ c #395731",
"% c #3A5830",
"& c #3B5A31",
"* c #467532",
"= c #477732",
"- c #487832",
"; c #497B32",
": c #497C33",
"> c #4A7D33",
", c #32A118",
"< c #32A218",
"1 c #35A419",
"2 c #37A619",
"3 c #518D33",
"4 c #518B34",
"5 c #53C725",
"6 c #57CB27",
"7 c #5ED329",
"8 c #60D62A",
"9 c #61D72A",
"0 c #6FD137",
"q c #70D336",
"w c #70D237",
"e c #71D437",
"r c #71E931",
"t c #72EA32",
"y c #74EC32",
"u c #74ED33",
"i c #82FB39",
"p c #81FC38",
"a c #82FD38",
"s c #83FC39",
"d c #83FE39",
"f c #84FF39",
/* pixels */
"............................",
"                            ",
"                            ",
"                            ",
"                            ",
"                            ",
"                            ",
"                            ",
"            #>4>@           ",
"          &efffffq%         ",
"         -sfffffffi=        ",
"        &sfft55557di%       ",
"        efffa1XXXX9fw       ",
"       #ffyafa1XXX6ffO      ",
"       >ff6,pfa2XX6ff:      ",
"       3ff6X,pfa2X6ff3      ",
"       >ff6XX,pfa26ff;      ",
"       @ff6XXX<afauffo      ",
"        qf8XXXX<afff0       ",
"        %id75555rffi$       ",
"         =ifffffffi*        ",
"          %wfffff0$         ",
"            +;4;O           ",
"                            ",
"                            ",
"                            ",
"                            ",
"                            ",
"                            ",
"                            ",
"                            ",
"                            "
};
