/* XPM */
static char *menu_pressed[] = {
/* columns rows colors chars-per-pixel */
"28 32 4 1 ",
"  c #23262E",
". c #32343C",
"X c #00B0FF",
"o c #ECEFF1",
/* pixels */
"............................",
"                            ",
"                            ",
"                            ",
"                            ",
"                            ",
"                            ",
"                            ",
"                            ",
"                            ",
"                            ",
"                            ",
"          oooooooo          ",
"          oooooooo          ",
"                            ",
"          oooooooo          ",
"          oooooooo          ",
"                            ",
"          oooooooo          ",
"          oooooooo          ",
"                            ",
"                            ",
"                            ",
"                            ",
"                            ",
"                            ",
"                            ",
"  XXXXXXXXXXXXXXXXXXXXXXXX  ",
"  XXXXXXXXXXXXXXXXXXXXXXXX  ",
"                            ",
"                            ",
"                            "
};
