/* XPM */
static char *menu_prelight[] = {
/* columns rows colors chars-per-pixel */
"28 32 3 1 ",
"  c #23262E",
". c #32343C",
"X c #00B0FF",
/* pixels */
"............................",
"                            ",
"                            ",
"                            ",
"                            ",
"                            ",
"                            ",
"                            ",
"                            ",
"                            ",
"                            ",
"                            ",
"          XXXXXXXX          ",
"          XXXXXXXX          ",
"                            ",
"          XXXXXXXX          ",
"          XXXXXXXX          ",
"                            ",
"          XXXXXXXX          ",
"          XXXXXXXX          ",
"                            ",
"                            ",
"                            ",
"                            ",
"                            ",
"                            ",
"                            ",
"                            ",
"                            ",
"                            ",
"                            ",
"                            "
};
