/* XPM */
static char *menu_inactive[] = {
/* columns rows colors chars-per-pixel */
"28 32 3 1 ",
"  c #23262E",
". c #32343C",
"X c #73767C",
/* pixels */
"............................",
"                            ",
"                            ",
"                            ",
"                            ",
"                            ",
"                            ",
"                            ",
"                            ",
"                            ",
"                            ",
"                            ",
"          XXXXXXXX          ",
"          XXXXXXXX          ",
"                            ",
"          XXXXXXXX          ",
"          XXXXXXXX          ",
"                            ",
"          XXXXXXXX          ",
"          XXXXXXXX          ",
"                            ",
"                            ",
"                            ",
"                            ",
"                            ",
"                            ",
"                            ",
"                            ",
"                            ",
"                            ",
"                            ",
"                            "
};
