/* XPM */
static char *shade_prelight[] = {
/* columns rows colors chars-per-pixel */
"28 32 5 1 ",
"  c #23262E",
". c #32343C",
"X c #116B97",
"o c #10709D",
"O c #00B0FF",
/* pixels */
"............................",
"                            ",
"                            ",
"                            ",
"                            ",
"                            ",
"                            ",
"                            ",
"                            ",
"                            ",
"                            ",
"                            ",
"                            ",
"                            ",
"             Xo             ",
"            XOOo            ",
"           XOOOOo           ",
"          XOOOOOOo          ",
"                            ",
"                            ",
"                            ",
"                            ",
"                            ",
"                            ",
"                            ",
"                            ",
"                            ",
"                            ",
"                            ",
"                            ",
"                            ",
"                            "
};
