/* XPM */
static char *stick_pressed[] = {
/* columns rows colors chars-per-pixel */
"28 32 39 1 ",
"  c #23262E",
". c #262931",
"X c #272A32",
"o c #282B33",
"O c #2E3139",
"+ c #2F3239",
"@ c #2F323A",
"# c #30333A",
"$ c #32343C",
"% c #33363E",
"& c #34373E",
"* c #34373F",
"= c #3A3D44",
"- c #3B3D45",
"; c #3B3E46",
": c #3C3E45",
"> c #3C3E46",
", c #3D3F46",
"< c #3D4048",
"1 c #3F424A",
"2 c #404249",
"3 c #40424A",
"4 c #40434A",
"5 c #45474F",
"6 c #45484E",
"7 c #45484F",
"8 c #484B52",
"9 c #494C53",
"0 c #4A4D54",
"q c #4B4D55",
"w c #4F5159",
"e c #A0A3A8",
"r c #A1A3A9",
"t c #A2A4A8",
"y c #DBDEE0",
"u c #DCDFE1",
"i c #DCE0E1",
"p c #DDE0E2",
"a c #ECEFF1",
/* pixels */
"$$$$$$$$$$$$$$$$$$$$$$$$$$$$",
"                            ",
"                            ",
"                            ",
"         o*379973&X         ",
"       X-0qqqqqqqqq<o       ",
"      #9qqqqqqqqqqqq9@      ",
"     *qqqqqqqqqqqqqqqq*     ",
"    #qqqqqqqqqqqqqqqqqq@    ",
"   X9qqqqqqqqqqqqqqqqqq9X   ",
"   >qqqqqqqqqqqqqqqqqqqq:   ",
"  o0qqqqqqqqqqqqqqqqqqqq0X  ",
"  *qqqqqqqqqqqqqqqqqqqqqq&  ",
"  2qqqqqqqqwtiurwqqqqqqqq1  ",
"  5qqqqqqqqraaaarqqqqqqqq7  ",
"  9qqqqqqqqiaaaapqqqqqqqq9  ",
"  9qqqqqqqquaaaayqqqqqqqq8  ",
"  7qqqqqqqqraaaaeqqqqqqqq6  ",
"  2qqqqqqqqwruurwqqqqqqqq1  ",
"  &qqqqqqqqqqqqqqqqqqqqqq%  ",
"  X0qqqqqqqqqqqqqqqqqqqq0X  ",
"   :qqqqqqqqqqqqqqqqqqqq;   ",
"   X9qqqqqqqqqqqqqqqqqq8X   ",
"    O0qqqqqqqqqqqqqqqqq+    ",
"     *qqqqqqqqqqqqqqqq*     ",
"      @9qqqqqqqqqqqq8+      ",
"       .=0qqqqqqqqq,X       ",
"         X&469961&X         ",
"                            ",
"                            ",
"                            ",
"                            "
};
