/* XPM */
static char *stick_prelight[] = {
/* columns rows colors chars-per-pixel */
"28 32 28 1 ",
"  c #23262E",
". c #25282F",
"X c #252830",
"o c #262930",
"O c #292C34",
"+ c #292C35",
"@ c #2B2E36",
"# c #2C2F36",
"$ c #2E3139",
"% c #2F3239",
"& c #2F323A",
"* c #30333A",
"= c #30323B",
"- c #31333C",
"; c #32343C",
": c #33363E",
"> c #34373E",
", c #34373F",
"< c #363841",
"1 c #373941",
"2 c #3C3E45",
"3 c #979A9F",
"4 c #989A9F",
"5 c #D9DCDE",
"6 c #DADDDF",
"7 c #DADEDF",
"8 c #DBDEE0",
"9 c #ECEFF1",
/* pixels */
";;;;;;;;;;;;;;;;;;;;;;;;;;;;",
"                            ",
"                            ",
"                            ",
"         o@;:<<:;@o         ",
"       X%1111111111=o       ",
"      +<111111111111<O      ",
"     @1111111111111111@     ",
"    +111111111111111111O    ",
"   o<111111111111111111<.   ",
"   &11111111111111111111&   ",
"  o1111111111111111111111o  ",
"  @1111111111111111111111#  ",
"  ;1111111124764211111111-  ",
"  ,1111111149999411111111:  ",
"  <1111111179999811111111<  ",
"  <1111111169999511111111<  ",
"  >1111111149999311111111:  ",
"  ;1111111124664211111111-  ",
"  @1111111111111111111111@  ",
"  o1111111111111111111111o  ",
"   &11111111111111111111%   ",
"   X<111111111111111111<X   ",
"    O111111111111111111O    ",
"     @1111111111111111@     ",
"      O<111111111111<O      ",
"       X$1111111111*X       ",
"         o#-:<<:-#o         ",
"                            ",
"                            ",
"                            ",
"                            "
};
