/* XPM */
static char *stick_inactive[] = {
/* columns rows colors chars-per-pixel */
"28 32 10 1 ",
"  c #23262E",
". c #252830",
"X c #32343C",
"o c #4E5057",
"O c #4E5157",
"+ c #4E5158",
"@ c #6A6D73",
"# c #6B6D74",
"$ c #6B6E74",
"% c #73767C",
/* pixels */
"XXXXXXXXXXXXXXXXXXXXXXXXXXXX",
"                            ",
"                            ",
"                            ",
"                            ",
"                            ",
"                            ",
"                            ",
"                            ",
"                            ",
"                            ",
"                            ",
"                            ",
"           .+$@O.           ",
"           O%%%%O           ",
"           $%%%%$           ",
"           @%%%%#           ",
"           O%%%%o           ",
"           .O@@O.           ",
"                            ",
"                            ",
"                            ",
"                            ",
"                            ",
"                            ",
"                            ",
"                            ",
"                            ",
"                            ",
"                            ",
"                            ",
"                            "
};
