/* XPM */
static char *top_left_active_shaded[] = {
/* columns rows colors chars-per-pixel */
"4 32 5 1 ",
"  c #23262E",
". c #252830",
"X c #373B41",
"o c #393B42",
"O c None",
/* pixels */
"OXoo",
".   ",
"    ",
"    ",
"    ",
"    ",
"    ",
"    ",
"    ",
"    ",
"    ",
"    ",
"    ",
"    ",
"    ",
"    ",
"    ",
"    ",
"    ",
"    ",
"    ",
"    ",
"    ",
"    ",
"    ",
"    ",
"    ",
"    ",
"    ",
"    ",
"    ",
"    "
};
